<svg id="Слой_1" data-name="Слой 1" xmlns="http://www.w3.org/2000/svg" width="150" height="150" viewBox="0 0 150 150">
  <title>Map</title>
  <g>
    <path d="M-175.5-33.5v60a15,15,0,0,0-4.39-10.61A15,15,0,0,0-190.5,11.5a15,15,0,0,0-10.61,4.39A15,15,0,0,0-205.5,26.5v-90a15,15,0,0,1,4.39-10.61A15,15,0,0,1-190.5-78.5a15,15,0,0,1,10.6,4.4,15,15,0,0,1,4.4,10.6Z" transform="translate(208 96)" style="fill: #c1c0c9;opacity: 0.30000001192092896;isolation: isolate"/>
    <path d="M-190.5,11.5a15,15,0,0,1,10.61,4.39A15,15,0,0,1-175.5,26.5a15,15,0,0,1-4.39,10.61A15,15,0,0,1-190.5,41.5Z" transform="translate(208 96)" style="fill: #1e8149;opacity: 0.30000001192092896;isolation: isolate"/>
    <path d="M-126.75,15.25-164.3,51.5h-26.2a15,15,0,0,1-10.61-4.39A15,15,0,0,1-205.5,36.5v-10a15,15,0,0,1,4.39-10.61A15,15,0,0,1-190.5,11.5v30a15,15,0,0,0,10.61-4.39A15,15,0,0,0-175.5,26.5v-60Z" transform="translate(208 96)" style="fill: #c1c0c9;opacity: 0.30000001192092896;isolation: isolate"/>
    <path d="M-60.5-16.85V51.5h-71.85Z" transform="translate(208 96)" style="fill: #c1c0c9;opacity: 0.30000001192092896;isolation: isolate"/>
    <path d="M-60.5-63.5v14.75L-111.5.5l-64-64h37.72C-135.2-47.78-110.5-21-110.5-21s24.7-26.78,27.28-42.5Z" transform="translate(208 96)" style="fill: #c1c0c9;opacity: 0.30000001192092896;isolation: isolate"/>
    <path d="M-83.22-63.5C-85.8-47.78-110.5-21-110.5-21s-24.7-26.78-27.28-42.5A15,15,0,0,1-138-66a27.55,27.55,0,0,1,8.05-19.45,27.55,27.55,0,0,1,19.45-8,27.51,27.51,0,0,1,19.44,8A27.52,27.52,0,0,1-83-66,15,15,0,0,1-83.22-63.5ZM-95.5-66A15,15,0,0,0-98-74.33a15,15,0,0,0-6.73-5.53,15,15,0,0,0-8.67-.85,15.07,15.07,0,0,0-7.68,4.1,15.07,15.07,0,0,0-4.1,7.68,15,15,0,0,0,.85,8.67,15,15,0,0,0,5.53,6.73A15,15,0,0,0-110.5-51a15,15,0,0,0,10.61-4.39A15,15,0,0,0-95.5-66Z" transform="translate(208 96)" style="fill: #1e8149"/>
    <path d="M-60.5-66h-20a30,30,0,0,0-8.79-21.21A30,30,0,0,0-110.5-96a30,30,0,0,0-21.21,8.79A30,30,0,0,0-140.5-66h-32.7a17.5,17.5,0,0,0-6.38-11,17.45,17.45,0,0,0-12.17-3.78,17.52,17.52,0,0,0-11.51,5.48A17.45,17.45,0,0,0-208-63.5v100a17.54,17.54,0,0,0,5.13,12.37A17.54,17.54,0,0,0-190.5,54h130a2.51,2.51,0,0,0,1.77-.73A2.51,2.51,0,0,0-58,51.5v-115a2.51,2.51,0,0,0-.73-1.77A2.51,2.51,0,0,0-60.5-66Zm-50-25a25,25,0,0,1,17.67,7.33A25,25,0,0,1-85.5-66c0,10.79-16.61,31.79-25,41.27-8.39-9.48-25-30.48-25-41.27a25,25,0,0,1,7.33-17.67A25,25,0,0,1-110.5-91ZM-203-63.5a12.52,12.52,0,0,1,3.66-8.84A12.52,12.52,0,0,1-190.5-76a12.52,12.52,0,0,1,8.84,3.66A12.52,12.52,0,0,1-178-63.5V14.28a17.55,17.55,0,0,0-5.72-3.91A17.51,17.51,0,0,0-190.5,9a17.51,17.51,0,0,0-6.78,1.37A17.55,17.55,0,0,0-203,14.28Zm25,90a12.5,12.5,0,0,1-2.82,7.9A12.54,12.54,0,0,1-188,38.75V14.25a12.49,12.49,0,0,1,7.18,4.35A12.5,12.5,0,0,1-178,26.5ZM-190.5,49a12.47,12.47,0,0,1-8.83-3.67A12.47,12.47,0,0,1-203,36.5v-10a12.5,12.5,0,0,1,2.82-7.9A12.49,12.49,0,0,1-193,14.25V41.5a2.51,2.51,0,0,0,.73,1.77,2.51,2.51,0,0,0,1.77.73,17.54,17.54,0,0,0,12.37-5.13A17.54,17.54,0,0,0-173,26.5v-54l42.68,42.68-35,33.78ZM-63,49h-63.1L-63-11Zm0-66.92L-133.35,49h-24.76L-125,17.05a2.86,2.86,0,0,0,.56-.81,2.51,2.51,0,0,0,.2-1,2.5,2.5,0,0,0-.19-1,2.6,2.6,0,0,0-.54-.82l-48-48V-57.47l59.73,59.74a2.55,2.55,0,0,0,1.75.73,2.53,2.53,0,0,0,1.75-.7L-63-42.86Zm0-31.89L-111.47-3l-58-58h29.69c4.28,16.44,26.4,40.57,27.44,41.69a2.49,2.49,0,0,0,.84.6,2.42,2.42,0,0,0,1,.21,2.42,2.42,0,0,0,1-.21,2.49,2.49,0,0,0,.84-.6c1-1.12,23.16-25.25,27.44-41.69H-63Z" transform="translate(208 96)" style="fill: #1e8149"/>
    <path d="M-93-66a17.52,17.52,0,0,0-3-9.72,17.55,17.55,0,0,0-7.85-6.45,17.5,17.5,0,0,0-10.11-1,17.39,17.39,0,0,0-9,4.79,17.39,17.39,0,0,0-4.79,9,17.5,17.5,0,0,0,1,10.11,17.55,17.55,0,0,0,6.45,7.85,17.52,17.52,0,0,0,9.72,3,17.54,17.54,0,0,0,12.37-5.13A17.5,17.5,0,0,0-93-66Zm-30,0a12.43,12.43,0,0,1,2.11-6.94,12.46,12.46,0,0,1,5.61-4.61,12.55,12.55,0,0,1,7.22-.71,12.49,12.49,0,0,1,6.4,3.42,12.49,12.49,0,0,1,3.42,6.4,12.47,12.47,0,0,1-.71,7.22,12.46,12.46,0,0,1-4.61,5.61,12.43,12.43,0,0,1-6.94,2.11,12.47,12.47,0,0,1-8.83-3.67A12.47,12.47,0,0,1-123-66Z" transform="translate(208 96)" style="fill: #1e8149"/>
  </g>
</svg>
