<svg id="Слой_1" data-name="Слой 1" xmlns="http://www.w3.org/2000/svg" xmlns:xlink="http://www.w3.org/1999/xlink" width="30" height="30" viewBox="0 0 30 30">
  <defs>
    <mask id="mask" x="0" y="0" width="30" height="30" maskUnits="userSpaceOnUse">
      <g id="mask0">
        <path d="M24.48,12.6l1.56.29a1.22,1.22,0,0,1,1,1.19v1.85a1.23,1.23,0,0,1-1,1.18l-1.56.29A1.8,1.8,0,0,0,23.37,20l.89,1.25a1.22,1.22,0,0,1-.14,1.59l-1.3,1.29a1.21,1.21,0,0,1-1.5.14l-1.25-.89a1.79,1.79,0,0,0-2.67,1.11L17.1,26a1.23,1.23,0,0,1-1.18,1H14.07a1.23,1.23,0,0,1-1.18-1l-.29-1.56A1.8,1.8,0,0,0,10,23.37l-1.25.89a1.22,1.22,0,0,1-1.58-.14l-1.3-1.29a1.22,1.22,0,0,1-.14-1.59l.89-1.17A1.79,1.79,0,0,0,5.52,17.4L4,17.11a1.22,1.22,0,0,1-1-1.19V14.07a1.23,1.23,0,0,1,1-1.18l1.56-.29A1.8,1.8,0,0,0,6.63,10L5.74,8.76a1.22,1.22,0,0,1,.14-1.59l1.3-1.29a1.22,1.22,0,0,1,1.58-.14L10,6.63A1.8,1.8,0,0,0,12.6,5.52L12.89,4a1.22,1.22,0,0,1,1.19-1h1.85a1.23,1.23,0,0,1,1.18,1l.29,1.56a1.89,1.89,0,0,0,1,1.23A1.83,1.83,0,0,0,20,6.63l1.25-.89a1.22,1.22,0,0,1,1.58.14l1.3,1.29a1.22,1.22,0,0,1,.14,1.59l-.89,1.17a1.79,1.79,0,0,0,1.11,2.67ZM15,19.32A4.32,4.32,0,1,0,10.68,15,4.31,4.31,0,0,0,15,19.32Z" style="fill: #fff"/>
      </g>
    </mask>
    <linearGradient id="Безымянный_градиент" data-name="Безымянный градиент" x1="7" y1="9.44" x2="30.21" y2="31.38" gradientTransform="matrix(1, 0, 0, -1, 0, 32)" gradientUnits="userSpaceOnUse">
      <stop offset="0" stop-color="#5b4af5"/>
      <stop offset="1" stop-color="#26d4ff"/>
    </linearGradient>
  </defs>
  <title>settings</title>
  <path d="M24.48,12.6l1.56.29a1.22,1.22,0,0,1,1,1.19v1.85a1.23,1.23,0,0,1-1,1.18l-1.56.29A1.8,1.8,0,0,0,23.37,20l.89,1.25a1.22,1.22,0,0,1-.14,1.59l-1.3,1.29a1.21,1.21,0,0,1-1.5.14l-1.25-.89a1.79,1.79,0,0,0-2.67,1.11L17.1,26a1.23,1.23,0,0,1-1.18,1H14.07a1.23,1.23,0,0,1-1.18-1l-.29-1.56A1.8,1.8,0,0,0,10,23.37l-1.25.89a1.22,1.22,0,0,1-1.58-.14l-1.3-1.29a1.22,1.22,0,0,1-.14-1.59l.89-1.17A1.79,1.79,0,0,0,5.52,17.4L4,17.11a1.22,1.22,0,0,1-1-1.19V14.07a1.23,1.23,0,0,1,1-1.18l1.56-.29A1.8,1.8,0,0,0,6.63,10L5.74,8.76a1.22,1.22,0,0,1,.14-1.59l1.3-1.29a1.22,1.22,0,0,1,1.58-.14L10,6.63A1.8,1.8,0,0,0,12.6,5.52L12.89,4a1.22,1.22,0,0,1,1.19-1h1.85a1.23,1.23,0,0,1,1.18,1l.29,1.56a1.89,1.89,0,0,0,1,1.23A1.83,1.83,0,0,0,20,6.63l1.25-.89a1.22,1.22,0,0,1,1.58.14l1.3,1.29a1.22,1.22,0,0,1,.14,1.59l-.89,1.17a1.79,1.79,0,0,0,1.11,2.67ZM15,19.32A4.32,4.32,0,1,0,10.68,15,4.31,4.31,0,0,0,15,19.32Z" style="fill: #0e1d25"/>
  <g style="mask: url(#mask)">
    <rect width="30" height="30" style="fill: url(#Безымянный_градиент)"/>
  </g>
</svg>
