<?xml version="1.0" encoding="utf-8"?>
<!-- Generator: Adobe Illustrator 22.1.0, SVG Export Plug-In . SVG Version: 6.00 Build 0)  -->
<svg version="1.1" id="Слой_1" xmlns="http://www.w3.org/2000/svg" xmlns:xlink="http://www.w3.org/1999/xlink" x="0px" y="0px"
	 width="30px" height="30px" viewBox="0 0 30 30" style="enable-background:new 0 0 30 30;" xml:space="preserve">
<style type="text/css">
	.st0{fill:#EF0F34;}
	.st1{fill:#FFFFFF;}
</style>
<title>settings</title>
<g>
	<circle class="st0" cx="15" cy="15" r="12.1"/>
	<circle class="st1" cx="15" cy="21.1" r="1.5"/>
	<path class="st1" d="M16,17c0-0.5,0.4-0.9,1.1-1.5l0,0c1.1-0.9,1.8-2.1,1.9-3.5c0-2.2-1.8-4-4-4c-2.2,0-4,1.8-4,4h2
		c0-1.1,0.9-2,2-2s2,0.9,2,2c0,0.8-0.5,1.3-1.3,2l0,0c-1,0.7-1.6,1.8-1.7,3L16,17z"/>
</g>
</svg>
